<svg width="270" height="247" viewBox="0 0 270 247" fill="none" xmlns="http://www.w3.org/2000/svg">
<path d="M93.5176 238.89C78.0649 243.299 62.6461 244.818 46.5586 240.705C28.6276 236.118 13.8603 219.603 5.93668 203.558C2.99253 197.599 0.764416 191.006 1.52312 184.404C3.28152 169.152 17.8446 168.348 29.9605 171.591C36.7904 173.416 42.9433 176.983 49.026 180.514C59.1245 186.38 71.1928 189.71 80.0865 197.521C83.0704 200.149 85.2427 203.218 88.7762 205.216C94.2727 208.325 100.662 210.031 106.328 212.902C111.164 215.364 116.499 219.25 116.167 224.665C115.82 230.218 109.806 233.393 104.577 235.285C100.876 236.634 97.1985 237.846 93.5176 238.89Z" fill="url(#paint0_linear)"/>
<path d="M50.2389 38.0288C77.2896 3.08462 129.416 -8.36124 170.064 7.96043C189.665 15.8343 205.576 30.6699 220.151 45.9489C232.998 59.4154 245.377 73.8476 253.674 90.6447C259.34 102.11 263.061 115.662 265.499 128.248C269.142 147.094 263.282 170.715 239.419 167.462C233.82 166.7 229.081 164.372 223.932 162.274C219.767 160.573 215.543 161.172 211.17 160.194C200.16 157.737 189.705 152.972 179.876 147.543C159.845 136.468 141.815 121.998 121.122 112.097C104.163 103.992 85.8104 99.2059 67.0533 97.9975C59.14 97.4888 50.784 97.5214 43.9263 93.5392C27.0245 83.7162 36.3456 60.6674 43.6917 47.8334C45.639 44.4142 47.827 41.1378 50.2389 38.0288V38.0288Z" fill="url(#paint1_linear)"/>
<path d="M244.06 55.7004C247.906 59.6484 263.293 70.7325 264.342 58.9221C264.6 55.9796 263.443 53.0344 261.759 50.7622C259.832 48.1546 257.554 46.7073 256.11 43.7194C254.339 40.1101 252.281 36.6932 249.961 33.5128C245.225 26.8992 239.6 20.7102 232.495 17.6646C227.511 15.5306 218.853 15.4463 216.022 21.8273C211.899 31.1161 226.873 33.8034 231.255 37.5572C235.415 41.111 237.534 46.9024 240.712 51.5987C241.716 53.0796 242.837 54.4527 244.06 55.7004V55.7004Z" fill="url(#paint2_linear)"/>
<path d="M169.394 39.4106C177.712 45.0359 183.713 53.0521 191.203 59.6745C203.672 70.6985 221.509 73.9114 236.097 81.9484C250.971 90.1481 261.84 102.124 266.058 118.667C271.507 140.021 270.59 164.952 263.499 186.11C255.69 209.4 239.849 224.203 217.473 233.335C195.11 242.461 170.757 245.849 146.712 245.356C144.391 245.31 142.077 245.219 139.757 245.089C87.6371 242.128 19.4368 219.445 5.20476 162.364C5.0742 161.843 4.95041 161.322 4.82662 160.793C3.38946 154.443 2.7177 147.944 2.82567 141.434C3.15146 118.353 8.77001 93.2059 18.1891 72.1389C24.5251 57.9556 36.9789 46.4074 49.8394 38.4289C67.9083 27.2202 89.2119 25.4052 110.312 25.2463C125.937 25.1293 143.457 25.8265 157.795 32.6983C161.824 34.6428 165.701 36.8865 169.394 39.4106Z" fill="url(#paint3_linear)"/>
<path d="M66.3902 72.7599C66.3902 72.7599 119.466 143.627 132.743 149.487C146.024 155.35 162.672 154.03 164.128 160.828C165.584 167.63 136.255 156.125 140.934 166.617C145.612 177.113 163.846 189.093 163.932 199.659C164.021 210.229 134.917 176.972 134.917 176.972C134.917 176.972 162.339 207.399 153.259 208.118C144.175 208.838 120.688 179.09 120.688 179.09C120.688 179.09 146.961 218.114 138.252 214.549C129.546 210.985 48.8046 117.617 36.3535 107.737C23.9025 97.8608 66.3902 72.7599 66.3902 72.7599Z" fill="#E27B5A"/>
<path d="M220.787 89.9623C220.787 89.9623 160.251 154.554 146.407 158.919C132.563 163.281 116.163 160.139 113.966 166.734C111.773 173.331 142.187 165.128 136.382 175.045C130.581 184.958 111.143 194.857 109.894 205.353C108.65 215.845 141.228 185.997 141.228 185.997C141.228 185.997 110.628 213.219 119.574 214.933C128.525 216.65 155.138 189.669 155.138 189.669C155.138 189.669 124.735 225.566 133.781 222.981C142.828 220.396 233.338 136.485 246.797 128.036C260.259 119.588 220.787 89.9623 220.787 89.9623Z" fill="#FFCEB0"/>
<path d="M169.25 134.812C169.25 134.812 187.869 170.069 204.985 173.82C222.099 177.571 259.071 144.104 267.138 127.527C275.208 110.953 235.877 60.7967 227.46 53.5826C215.301 52.0982 160.618 103.385 169.25 134.812Z" fill="#FB4C47"/>
<path d="M53.721 38.5534C53.721 38.5534 114.959 98.9063 112.057 114.577C109.159 130.251 85.7756 149.026 66.917 155.174C48.0585 161.32 6.82979 136.563 6.82979 118.51C3.82341 87.8497 19.4547 55.9875 53.721 38.5534Z" fill="#128E5A"/>
<defs>
<linearGradient id="paint0_linear" x1="0.0489009" y1="186.432" x2="12.3219" y2="241.875" gradientUnits="userSpaceOnUse">
<stop stop-color="#FFD0D0"/>
<stop offset="1" stop-color="#FFF8F8"/>
</linearGradient>
<linearGradient id="paint1_linear" x1="302.134" y1="59.1451" x2="129.126" y2="7.61231" gradientUnits="userSpaceOnUse">
<stop stop-color="#FFF8F8"/>
<stop offset="1" stop-color="#FFD0D0"/>
</linearGradient>
<linearGradient id="paint2_linear" x1="264.771" y1="58.7407" x2="206.155" y2="29.2435" gradientUnits="userSpaceOnUse">
<stop stop-color="#FFD0D0"/>
<stop offset="1" stop-color="#FFF7F7"/>
</linearGradient>
<linearGradient id="paint3_linear" x1="240.552" y1="227.528" x2="7.21539" y2="72.1506" gradientUnits="userSpaceOnUse">
<stop stop-color="#FFCFCF"/>
<stop offset="1" stop-color="#FFF8F8"/>
</linearGradient>
</defs>
</svg>
