<svg width="131" height="135" xmlns="http://www.w3.org/2000/svg" fill="none"><path d="M75.22 109.882c9.962 11.181 50.39 43.129 54.666 11.196 1.055-7.956-1.731-16.091-6.028-22.462-4.913-7.311-10.922-11.515-14.482-19.8-4.37-10.011-9.544-19.536-15.458-28.449C81.862 31.842 67.34 14.362 48.422 5.235c-13.27-6.395-36.763-7.67-45.218 9.309C-9.111 39.26 31.21 48.365 42.653 59.084c10.862 10.15 15.915 26.127 23.973 39.259a80.242 80.242 0 008.594 11.539z" fill="url(#a)"/><defs><linearGradient id="a" x1="131.073" y1="120.638" x2="-24.477" y2="33.482" gradientUnits="userSpaceOnUse"><stop stop-color="#FFE1E2"/><stop offset="1" stop-color="#FFF8F8"/></linearGradient></defs></svg>