<svg width="221" height="149" xmlns="http://www.w3.org/2000/svg" fill="none"><path d="M174.647 5.614c-30.686-6.9-60.987-8.161-91.971 1.647C48.142 18.196 21.11 52.07 7.4 84.268c-5.094 11.96-8.719 25.076-6.506 37.881 5.124 29.58 33.673 29.541 56.991 21.87 13.145-4.318 24.775-11.96 36.272-19.526 19.087-12.568 42.303-20.402 58.819-36.635 5.541-5.46 9.446-11.692 16.131-15.982 10.397-6.677 22.695-10.713 33.449-16.945 9.18-5.341 19.176-13.517 17.929-24.051-1.293-10.802-13.399-16.336-23.826-19.452-7.383-2.225-14.703-4.183-22.012-5.815z" fill="url(#a)"/><defs><linearGradient id="a" x1="160.191" y1=".16" x2="36.178" y2="91.798" gradientUnits="userSpaceOnUse"><stop stop-color="#FFD3D2"/><stop offset="1" stop-color="snow"/></linearGradient></defs></svg>