<svg width="187" height="188" fill="none" xmlns="http://www.w3.org/2000/svg"><path d="M140.69 55.818c-1.743 1.183-2.243 3.587-1.328 5.73a77.068 77.068 0 01-8.922 6.555 79.589 79.589 0 01-5.638 3.22 42.385 42.385 0 00-4.387-5.416 19.915 19.915 0 011.746-4.207 19.973 19.973 0 014.739-5.717c2.083 1.248 4.627 1.01 6.002-.682 1.551-1.906 1.041-4.933-1.147-6.756-2.184-1.826-5.21-1.767-6.761.14-1.41 1.738-1.112 4.406.607 6.248-.8 1.808-2.227 4.173-4.73 6.081a14.87 14.87 0 01-3.515 1.99 40.905 40.905 0 00-7.314-5.02 42.139 42.139 0 015.396-13.818c2.271.58 4.56-.336 5.414-2.308.983-2.262-.31-5.063-2.878-6.254-2.568-1.191-5.452-.315-6.433 1.95-.852 1.965.008 4.34 1.935 5.705a43.067 43.067 0 01-6.318 13.317 40.585 40.585 0 00-7.906-2.581 30.303 30.303 0 01-1.974-9.476 29.512 29.512 0 01.938-8.698c2.359-.14 4.276-1.77 4.454-3.96.207-2.485-1.886-4.749-4.682-5.051-2.79-.313-5.22 1.448-5.422 3.93-.178 2.191 1.422 4.212 3.726 4.866a28.988 28.988 0 01-.508 8.748 28.106 28.106 0 01-3.47 8.752 39.639 39.639 0 00-9.483.75 18.397 18.397 0 01-.722-3.922 18.904 18.904 0 01.044-3.112c2.334-.546 3.954-2.539 3.721-4.763-.252-2.489-2.719-4.333-5.505-4.115-2.787.216-4.837 2.407-4.583 4.9.228 2.187 2.162 3.877 4.518 4.106.29 1.031.537 2.139.725 3.315.222 1.349.347 2.649.39 3.904a25.47 25.47 0 00-.92.237 38.479 38.479 0 00-10.352 4.452 35.97 35.97 0 01-4.68-3.798 35.991 35.991 0 01-6.652-8.73c1.572-1.686 1.873-4.156.59-5.928-1.476-2.043-4.493-2.383-6.739-.759-2.25 1.628-2.877 4.602-1.4 6.645 1.304 1.803 3.808 2.275 5.924 1.244a32.694 32.694 0 016.65 9.092c.89 1.824 1.546 3.6 2.032 5.284a38.488 38.488 0 00-7.33 7.923 16.208 16.208 0 01-2.488-1.29 18.052 18.052 0 01-3.934-3.414c1.076-2.21.553-4.835-1.326-6.133-2.067-1.426-4.992-.702-6.533 1.62-1.536 2.32-1.108 5.357.965 6.78 1.787 1.23 4.205.856 5.822-.758a28.7 28.7 0 014.276 2.864 26.54 26.54 0 012.161 1.938 39.34 39.34 0 00-4.092 8.865 37.918 37.918 0 01-5.505-.474 38.625 38.625 0 01-10.828-3.45c.223-2.348-1.04-4.563-3.121-5.214-2.383-.744-4.934.84-5.698 3.538-.76 2.696.552 5.485 2.93 6.231 2.11.654 4.34-.505 5.361-2.648a29.999 29.999 0 0110.738 3.411 30.624 30.624 0 014.927 3.325c-.108.569-.212 1.15-.299 1.728a41.349 41.349 0 00-.325 8.838c-.909.32-1.879.613-2.91.859a29.718 29.718 0 01-8.652.745c-.718-2.293-2.762-3.849-4.92-3.604-2.448.275-4.122 2.776-3.736 5.584.38 2.81 2.68 4.862 5.136 4.58 2.154-.242 3.706-2.205 3.789-4.584a30.22 30.22 0 018.592-1.218c1.032.003 2.016.064 2.96.157a41.422 41.422 0 004.235 13.519 51.797 51.797 0 01-4.905 3.766 51.97 51.97 0 01-7.459 4.191c-1.519-2.005-4.077-2.753-6.014-1.648-2.133 1.217-2.703 4.204-1.276 6.673 1.43 2.466 4.314 3.482 6.442 2.267 1.898-1.083 2.55-3.564 1.67-5.84a55.49 55.49 0 0113.075-6.687 40.623 40.623 0 001.837 2.76 42.139 42.139 0 005.125 5.872 32.633 32.633 0 01-4.612 8.539 32.272 32.272 0 01-6.07 6.141c-1.99-1.32-4.495-1.23-5.96.347-1.667 1.794-1.349 4.843.719 6.804 2.067 1.961 5.099 2.093 6.765.298 1.446-1.556 1.397-4.041.022-5.952A50.096 50.096 0 0168.68 126.42a40.888 40.888 0 009.43 5.168 25.762 25.762 0 01-4.624 9.285c-2.185-.919-4.612-.338-5.742 1.501-1.283 2.095-.39 5.041 2.002 6.571 1.503.96 3.242 1.139 4.646.615a3.938 3.938 0 002.022-1.638 3.79 3.79 0 00.343-.729c.681-1.887-.12-4.198-1.996-5.598a37.367 37.367 0 013.404-5.632 37.142 37.142 0 012.81-3.376 39.913 39.913 0 006.474 1.422c.52 2.383.924 5.445.746 8.974a33.37 33.37 0 01-1.574 8.601c-2.35-.012-4.352 1.473-4.68 3.627-.379 2.459 1.563 4.858 4.337 5.358 2.762.503 5.317-1.085 5.69-3.541.328-2.135-1.094-4.226-3.288-5.063.036-2.491.29-5.455.997-8.71a43.96 43.96 0 012.96-8.874c3.76.02 7.53-.49 11.183-1.545a30.767 30.767 0 011.978 4.063 31.836 31.836 0 012.104 8.576c-2.143.965-3.352 3.172-2.77 5.305.664 2.418 3.389 3.827 6.089 3.146 2.695-.678 4.345-3.194 3.687-5.623-.576-2.105-2.707-3.447-5.031-3.307a44.843 44.843 0 01-2.635-8.46 43.128 43.128 0 01-.684-4.605 38.286 38.286 0 007.769-3.933 59.946 59.946 0 015.536 5.84 59.238 59.238 0 016.376 9.408c-1.561 1.683-1.858 4.149-.579 5.917 1.477 2.043 4.494 2.382 6.749.752 2.245-1.624 2.868-4.595 1.391-6.638-1.274-1.761-3.698-2.256-5.78-1.314a69.04 69.04 0 01-10.92-15.96 38.29 38.29 0 006.441-6.42c.454.208.915.434 1.378.673a31.715 31.715 0 017.147 5.01c-.92 2.139-.387 4.616 1.411 5.869 2.053 1.444 4.985.74 6.544-1.566 1.553-2.306 1.15-5.348-.908-6.789-1.824-1.28-4.338-.868-5.97.85a22.368 22.368 0 01-8.016-6.202 39.05 39.05 0 004.586-8.985 51.36 51.36 0 017.65 1.129 51.773 51.773 0 0110.645 3.655c-.208 2.331 1.053 4.524 3.12 5.174 2.386.739 4.932-.843 5.696-3.541.761-2.694-.55-5.481-2.93-6.23-2.059-.641-4.245.454-5.29 2.507a61.781 61.781 0 01-10.828-3.011 61.14 61.14 0 01-6.999-3.16c.361-1.403.647-2.824.861-4.266.342-2.355.485-4.748.411-7.143a45.843 45.843 0 018.733-2.218 45.844 45.844 0 018.697-.491c.707 2.248 2.697 3.796 4.827 3.588 2.458-.232 4.174-2.703 3.84-5.515-.336-2.816-2.604-4.902-5.062-4.67-2.147.205-3.736 2.124-3.869 4.483a34.345 34.345 0 01-8.611 1.096c-3.538 0-6.597-.531-8.991-1.167a41.528 41.528 0 00-1.602-6.773 31.929 31.929 0 013.241-1.91 32.085 32.085 0 018.17-2.864c1.249 2.043 3.591 3.046 5.596 2.273 2.292-.882 3.293-3.74 2.236-6.386-1.061-2.643-3.773-4.072-6.07-3.186-2.012.772-3.03 3.08-2.528 5.429a29.43 29.43 0 01-7.97 3.32 29.876 29.876 0 01-3.646.673 41.27 41.27 0 00-2.891-5.795 80.871 80.871 0 015.16-4.083 79.916 79.916 0 019.372-5.873c1.665 1.633 4.083 2.044 5.824.868 2.029-1.38 2.374-4.41.762-6.762-1.607-2.356-4.552-3.152-6.577-1.776z" fill="#FFE1E1"/></svg>