<svg viewBox="0 0 767 720" fill="none" xmlns="http://www.w3.org/2000/svg"><path d="M327.996 661.732c-36.392 17.214-73.881 27.27-115.326 23.679-46.194-4.007-89.445-38.793-115.587-75.211-9.713-13.526-17.915-28.91-18.738-45.539-1.888-38.416 33.779-46.357 65.051-43.292 17.627 1.72 34.293 8.019 50.771 14.261 27.358 10.372 58.548 13.669 83.723 29.341 8.45 5.277 15.073 11.975 24.623 15.467 14.857 5.439 31.346 7.043 46.523 11.824 12.961 4.109 27.736 11.533 29.129 25.053 1.412 13.866-12.157 24.173-24.307 30.986-8.597 4.848-17.191 9.345-25.862 13.431z" fill="url(#paint0_linear)"/><path d="M138.926 182.958C191.504 85.531 315.665 35.935 422.805 59.662c51.665 11.45 97.055 41.616 139.325 73.423 37.26 28.034 73.754 58.646 101.128 96.772 18.691 26.023 33.426 57.997 44.597 88.111 16.708 45.09 11.877 105.869-48.432 107.583-14.15.404-26.815-3.411-40.4-6.494-10.99-2.502-21.185.705-32.395.077-28.216-1.574-56.006-9.077-82.52-18.48-54.035-19.185-104.514-47.582-159.708-63.597a369.174 369.174 0 00-139.403-12.748c-19.767 1.977-40.407 5.473-58.985-1.567-45.791-17.371-32.173-78.15-19.261-112.874a208.11 208.11 0 0112.175-26.91z" fill="url(#paint1_linear)"/><path d="M625.216 147.415c11.119 8.187 53.681 29.294 51.447-.327-.566-7.378-4.63-14.184-9.721-19.112-5.827-5.658-12.049-8.304-16.841-15.099-5.851-8.197-12.336-15.801-19.37-22.714-14.409-14.411-30.842-27.41-49.648-32.033-13.19-3.237-34.625.093-39.013 17.022-6.395 24.644 31.714 25.166 44.081 32.653 11.734 7.083 19.339 20.532 29.112 30.841a73.965 73.965 0 009.953 8.769z" fill="url(#paint2_linear)"/><path d="M434.002 137.671c22.856 10.504 40.966 27.865 62.185 41.172 35.326 22.151 80.725 22.802 120.067 36.704 40.116 14.188 71.877 39.345 89.063 78.511 22.197 50.553 30.121 112.549 21.241 167.744-9.782 60.756-42.883 103.819-94.458 135.536-51.544 31.698-110.351 50.024-169.986 58.635a476.75 476.75 0 01-17.3 2.182C314.781 672.139 136.941 643.95 78.433 508.683a270.324 270.324 0 01-1.577-3.728 204.366 204.366 0 01-12.858-47.032c-8.63-57.183-5.02-121.635 9.65-177.555 9.863-37.647 35.925-71.28 64.451-96.257 40.079-35.09 91.993-48.283 144.08-57.3 38.571-6.676 82.162-12.114 120.41-.99a224.416 224.416 0 0131.413 11.85z" fill="url(#paint3_linear)"/><g opacity=".62"><path d="M263.231 647.334c-39.87 9.334-79.299 11.313-119.742-1.123-45.078-13.865-80.644-57.707-98.85-99.512-6.764-15.528-11.629-32.58-8.89-49.291 6.34-38.604 43.504-38.871 73.945-29.134 17.16 5.481 32.385 15.31 47.435 25.041 24.985 16.166 55.294 26.116 76.975 47.086 7.273 7.054 12.427 15.13 21.176 20.646 13.61 8.586 29.664 13.709 43.732 21.709 12.009 6.859 25.113 17.402 23.606 31.143-1.562 14.09-17.259 21.437-30.798 25.612-9.586 2.982-19.093 5.615-28.589 7.823z" fill="url(#paint4_linear)"/><path d="M177.628 130.81C250.75 45.177 384.821 22.419 486.284 68.931c48.924 22.437 87.607 62.142 122.835 102.813 31.053 35.846 60.793 74.092 79.858 117.858 13.02 29.875 20.832 64.822 25.499 97.155 6.969 48.411-10.836 107.814-71.173 96.618-14.157-2.625-25.934-9.128-38.783-15.099-10.393-4.839-21.216-3.83-32.229-6.853-27.72-7.6-53.749-21.007-78.103-36.028-49.627-30.636-93.748-69.67-145.205-97.401a375.502 375.502 0 00-135.892-42.496c-20.078-2.262-41.35-3.201-58.318-14.175-41.817-27.068-15.275-84.592 4.992-116.359a211.612 211.612 0 0117.863-24.154z" fill="url(#paint5_linear)"/><path d="M668.79 199.488c9.305 10.518 47.113 40.611 51.228 10.679 1.015-7.457-1.57-15.095-5.579-21.084-4.583-6.873-10.205-10.835-13.516-18.616-4.065-9.403-8.886-18.351-14.402-26.73-11.245-17.412-24.806-33.852-42.517-42.472-12.423-6.041-34.45-7.314-42.435 8.58-11.63 23.138 26.153 31.809 36.848 41.899 10.153 9.554 14.839 24.553 22.352 36.895a75.276 75.276 0 008.021 10.849z" fill="url(#paint6_linear)"/><path d="M480.737 148.898c20.481 15.334 34.776 36.471 53.028 54.242 30.389 29.583 75.394 39.941 111.541 62.181 36.855 22.688 63.056 54.498 71.767 97.12 11.259 55.016 5.877 118.359-14.76 171.344-22.723 58.321-64.849 94.061-122.918 114.568-58.035 20.494-120.431 26.138-181.572 21.943a483.131 483.131 0 01-17.67-1.53c-132.292-13.91-303.102-79.982-332.346-227.002-.268-1.344-.52-2.685-.77-4.045a207.861 207.861 0 01-2.726-49.518c3.652-58.707 21.027-122.024 47.576-174.492 17.861-35.325 50.97-63.194 84.679-81.929 47.359-26.319 101.803-28.333 155.526-26.158 39.782 1.613 84.291 5.53 119.943 24.773a228.043 228.043 0 0128.702 18.503z" fill="url(#paint7_linear)"/></g><path d="M370.401 346.132a7.483 7.483 0 008.948 5.651l16.6-3.747c8.451-1.908 17.238-1.855 25.642.248 2.505.628 5.218.614 7.908-.185 7.127-2.117 11.665-9.327 10.494-16.669-1.376-8.62-9.7-14.16-18.08-12.268a14.883 14.883 0 00-6.009 2.873c-6.85 5.447-14.715 9.476-23.253 11.403l-16.598 3.747a7.483 7.483 0 00-5.652 8.947z" fill="#FB4C47"/><path d="M282.192 415.85a6.187 6.187 0 00-8.534 1.927l-7.514 11.896c-3.826 6.056-8.993 11.161-15.136 14.845a12.34 12.34 0 00-4.514 4.731c-2.93 5.405-1.368 12.273 3.61 15.88 5.843 4.235 13.948 2.608 17.741-3.397a12.32 12.32 0 001.834-5.192c.82-7.19 3.063-14.143 6.927-20.261l7.513-11.893a6.189 6.189 0 00-1.927-8.536zM349.969 308.561a6.473 6.473 0 008.93-2.016l7.864-12.448c4.003-6.337 9.41-11.68 15.838-15.534a12.928 12.928 0 004.724-4.952c3.065-5.655 1.431-12.842-3.778-16.617-6.115-4.431-14.596-2.729-18.566 3.555a12.891 12.891 0 00-1.918 5.433c-.859 7.523-3.205 14.8-7.249 21.202l-7.862 12.446a6.475 6.475 0 002.017 8.931z" fill="#C63F3B"/><path d="M330.518 409.281a7.482 7.482 0 00-5.651 8.947l3.747 16.6c1.908 8.451 1.855 17.237-.248 25.642a14.925 14.925 0 00.185 7.908c2.117 7.127 9.327 11.665 16.669 10.493 8.62-1.375 14.16-9.699 12.268-18.079a14.883 14.883 0 00-2.873-6.009c-5.447-6.85-9.476-14.715-11.403-23.253l-3.747-16.598a7.482 7.482 0 00-8.947-5.651z" fill="#FB4C47"/><path d="M354.613 454.783c-5.448-6.85-9.477-14.715-11.404-23.253l-3.747-16.598a7.483 7.483 0 10-14.598 3.295l3.746 16.599c1.927 8.537 5.957 16.402 11.404 23.253a14.898 14.898 0 012.873 6.008c1.219 5.399-.651 10.772-4.437 14.281 2.138.672 4.446.874 6.767.504 8.62-1.376 14.16-9.699 12.269-18.08a14.909 14.909 0 00-2.873-6.009z" fill="#C63F3B"/><path d="M257.605 339.914c13.169-2.973 21.435-16.059 18.462-29.228-2.972-13.169-16.058-21.434-29.227-18.462-13.169 2.973-21.435 16.058-18.462 29.227 2.973 13.169 16.058 21.435 29.227 18.463z" fill="#FF8F8C"/><path d="M246.845 292.224a24.42 24.42 0 00-7.041 2.791c10.293.917 19.272 8.345 21.67 18.967 2.397 10.622-2.52 21.187-11.421 26.437 2.468.22 5.01.07 7.557-.505 13.17-2.973 21.435-16.058 18.463-29.227-2.973-13.17-16.059-21.435-29.228-18.463z" fill="#FB4C47"/><path d="M336.462 435.62c43-9.706 69.99-52.433 60.284-95.433-9.707-43.001-52.434-69.99-95.434-60.284-43 9.707-69.99 52.434-60.284 95.434 9.707 43 52.434 69.99 95.434 60.283z" fill="#FB4C47"/><path d="M301.313 279.903a80.211 80.211 0 00-7.222 1.991c40.407-5.253 78.906 21.049 88.057 61.587 9.151 40.538-14.316 80.829-53.062 93.443a80.678 80.678 0 007.377-1.304c43.001-9.707 69.99-52.434 60.284-95.434-9.707-43-52.434-69.99-95.434-60.283z" fill="#C63F3B"/><path d="M345.648 340.372c8.735-1.972 14.217-10.651 12.245-19.385-1.971-8.735-10.65-14.217-19.385-12.245-8.734 1.971-14.217 10.65-12.245 19.385 1.972 8.734 10.651 14.217 19.385 12.245z" fill="#C63F3B"/><path d="M338.507 308.742a16.127 16.127 0 00-6.896 3.434c5.655 1.496 10.305 6.006 11.682 12.106 1.377 6.101-.885 12.171-5.349 15.951 2.441.646 5.069.733 7.703.139 8.734-1.972 14.216-10.651 12.245-19.385-1.972-8.735-10.651-14.217-19.385-12.245zM300.34 405.165c5.912-1.334 9.624-7.209 8.289-13.122-1.335-5.913-7.21-9.624-13.123-8.289-5.912 1.334-9.623 7.21-8.289 13.122 1.335 5.913 7.21 9.624 13.123 8.289z" fill="#fff"/><path d="M388.186 418.148c8.063-1.82 13.124-9.831 11.304-17.894-1.82-8.063-9.832-13.123-17.895-11.303-8.062 1.82-13.123 9.831-11.303 17.894 1.82 8.062 9.832 13.123 17.894 11.303z" fill="#FB4C47"/><path d="M381.595 388.951a14.896 14.896 0 00-6.858 3.606c4.932 1.539 8.933 5.59 10.153 10.993 1.22 5.403-.654 10.78-4.446 14.289a14.89 14.89 0 007.742.31c8.062-1.82 13.123-9.831 11.303-17.894-1.82-8.062-9.831-13.124-17.894-11.304zM267.364 369.39a7.483 7.483 0 01-5.652 8.947l-16.6 3.748c-8.451 1.907-16.363 5.729-23.049 11.239a14.938 14.938 0 01-7.22 3.23c-7.346 1.15-14.541-3.412-16.637-10.545-2.461-8.375 2.676-16.954 11.056-18.845 2.27-.513 4.536-.48 6.66.013 8.526 1.976 17.36 2.236 25.897.309l16.599-3.747a7.482 7.482 0 018.946 5.651z" fill="#C63F3B"/><path d="M307.264 306.243a7.483 7.483 0 005.651-8.947l-3.747-16.601c-1.908-8.451-1.855-17.237.248-25.641a14.925 14.925 0 00-.185-7.908c-2.117-7.128-9.327-11.666-16.669-10.494-8.62 1.376-14.16 9.699-12.268 18.08a14.872 14.872 0 002.873 6.008c5.447 6.851 9.476 14.716 11.403 23.253l3.747 16.599a7.483 7.483 0 008.947 5.651z" fill="#FB4C47"/><path d="M309.232 247.146c-2.117-7.128-9.327-11.666-16.669-10.494a14.924 14.924 0 00-7.832 3.799c4.625 1.455 8.454 5.116 9.902 9.99.799 2.69.813 5.403.185 7.908-2.103 8.404-2.156 17.191-.248 25.642l3.747 16.6a7.484 7.484 0 0014.599-3.295l-3.747-16.601c-1.908-8.451-1.855-17.237.248-25.641a14.925 14.925 0 00-.185-7.908zM423.381 319.818a14.878 14.878 0 00-6.056 2.76c-.307.234-.617.463-.927.691 5.219 1.708 9.343 6.243 10.176 12.165.713 5.064-1.275 10.016-4.919 13.259.29.073.581.143.87.22 2.493.673 5.203.709 7.906-.04 7.161-1.985 11.828-9.106 10.791-16.464-1.216-8.639-9.432-14.328-17.841-12.591z" fill="#C63F3B"/><g opacity=".63"><path d="M451.091 502.042a3.81 3.81 0 005.07 1.821l7.835-3.693a28.19 28.19 0 0112.77-2.706 7.602 7.602 0 003.909-.964c3.308-1.839 4.768-5.922 3.376-9.442a7.618 7.618 0 00-13.007-2.011c-2.803 3.463-6.267 6.333-10.297 8.233l-7.835 3.693a3.808 3.808 0 00-1.821 5.069z" fill="#FFC700"/><path d="M410.778 536.352a3.148 3.148 0 00-4.028 1.899l-2.422 6.74a23.324 23.324 0 01-5.883 9.047 6.273 6.273 0 00-1.721 2.849c-.86 3.008.674 6.249 3.545 7.492a6.298 6.298 0 008.78-6.427c-.386-3.663-.038-7.366 1.207-10.832l2.421-6.74a3.148 3.148 0 00-1.899-4.028zM432.623 475.559a3.294 3.294 0 004.215-1.987l2.534-7.053a24.392 24.392 0 016.157-9.466 6.592 6.592 0 001.801-2.982c.899-3.148-.706-6.539-3.711-7.84a6.59 6.59 0 00-9.187 6.726c.403 3.833.04 7.708-1.263 11.335l-2.534 7.052a3.295 3.295 0 001.988 4.215z" fill="#D09700"/><path d="M434.064 527.757a3.809 3.809 0 00-1.822 5.069l3.694 7.836c1.88 3.989 2.824 8.361 2.705 12.77a7.603 7.603 0 00.965 3.909c1.838 3.308 5.922 4.768 9.441 3.375a7.617 7.617 0 002.011-13.006c-3.462-2.803-6.332-6.267-8.232-10.297l-3.693-7.835a3.808 3.808 0 00-5.069-1.821z" fill="#FFC700"/><path d="M451.058 547.708c-3.462-2.803-6.332-6.267-8.232-10.297l-3.693-7.835a3.81 3.81 0 00-6.891 3.249l3.693 7.834c1.9 4.03 4.77 7.494 8.233 10.297a7.598 7.598 0 012.09 2.669 7.614 7.614 0 01-.629 7.586 7.518 7.518 0 003.418-.496 7.618 7.618 0 002.011-13.007zM390.184 501.331c6.215-2.93 8.879-10.345 5.949-16.561-2.93-6.215-10.344-8.879-16.56-5.949-6.216 2.93-8.88 10.344-5.95 16.56 2.93 6.216 10.345 8.88 16.561 5.95z" fill="#D09700"/><path d="M379.574 478.82a12.452 12.452 0 00-3.192 2.164c5.217-.68 10.498 2.021 12.861 7.034 2.363 5.014 1.086 10.806-2.758 14.397a12.42 12.42 0 003.699-1.085c6.216-2.93 8.88-10.344 5.95-16.56-2.93-6.216-10.345-8.88-16.56-5.95z" fill="#FFC700"/><path d="M439.923 540.19c20.297-9.567 28.995-33.777 19.427-54.074-9.568-20.297-33.777-28.995-54.074-19.427-20.297 9.567-28.995 33.777-19.428 54.074 9.568 20.297 33.778 28.995 54.075 19.427z" fill="#FFC700"/><path d="M405.282 466.689a41.322 41.322 0 00-3.369 1.786c19.5-7.068 41.533 1.755 50.553 20.889 9.019 19.135 1.803 41.745-16.059 52.288a40.85 40.85 0 003.522-1.462c20.297-9.567 28.995-33.777 19.427-54.074-9.567-20.297-33.777-28.995-54.074-19.427z" fill="#D09700"/><path d="M428.991 493.786a3.005 3.005 0 10-2.564-5.437 3.005 3.005 0 002.564 5.437zM418.61 529.041a5.587 5.587 0 10-4.764-10.108 5.587 5.587 0 004.764 10.108zM405.344 502.879a8.555 8.555 0 10-7.295-15.476 8.555 8.555 0 007.295 15.476z" fill="#fff"/><path d="M463.695 525.8a7.618 7.618 0 10-6.496-13.782 7.618 7.618 0 006.496 13.782z" fill="#FFC700"/><path d="M457.2 512.019a7.581 7.581 0 00-3.01 2.548 7.613 7.613 0 016.258 4.343 7.612 7.612 0 01-.633 7.591 7.617 7.617 0 007.524-10.839 7.618 7.618 0 00-10.139-3.643zM398.284 514.902a3.81 3.81 0 01-1.821 5.07l-7.836 3.693c-3.989 1.881-7.499 4.653-10.213 8.128a7.61 7.61 0 01-3.232 2.402c-3.524 1.382-7.602-.091-9.431-3.405a7.617 7.617 0 016.726-11.312c4.455.041 8.873-.804 12.903-2.704l7.835-3.693a3.808 3.808 0 015.069 1.821z" fill="#D09700"/><path d="M411.14 479.122a3.809 3.809 0 001.821-5.069l-3.694-7.836a28.202 28.202 0 01-2.705-12.77 7.603 7.603 0 00-.965-3.909c-1.838-3.308-5.922-4.768-9.441-3.375a7.62 7.62 0 00-2.011 13.006c3.463 2.804 6.333 6.267 8.232 10.297l3.693 7.835a3.81 3.81 0 005.07 1.821z" fill="#FFC700"/><path d="M405.595 449.538c-1.838-3.308-5.922-4.768-9.441-3.375a7.596 7.596 0 00-3.473 2.752c2.459.212 4.766 1.609 6.023 3.872a7.6 7.6 0 01.965 3.909c-.119 4.408.825 8.78 2.705 12.769l3.694 7.836a3.809 3.809 0 106.891-3.248l-3.694-7.836c-1.88-3.989-2.824-8.361-2.706-12.769a7.593 7.593 0 00-.964-3.91z" fill="#D09700"/></g><path d="M516.214 428.665a4.383 4.383 0 00-5.755 2.3l-3.93 9.161c-2 4.663-5.046 8.812-8.932 12.074a8.751 8.751 0 00-2.631 3.814c-1.446 4.108.413 8.738 4.298 10.707A8.766 8.766 0 00512 458.527c-.228-5.121.565-10.236 2.585-14.947l3.929-9.159a4.383 4.383 0 00-2.3-5.756z" fill="#1DB776"/><path d="M513.476 362.869a3.624 3.624 0 002.021-4.709l-3.059-7.653a26.848 26.848 0 01-1.837-12.281 7.22 7.22 0 00-.692-3.767c-1.555-3.247-5.349-4.868-8.771-3.747a7.247 7.247 0 00-2.656 12.236c3.127 2.86 5.654 6.314 7.227 10.25l3.057 7.651a3.625 3.625 0 004.71 2.02zM541.056 431.89a3.792 3.792 0 00-2.114 4.928l3.2 8.008a28.083 28.083 0 011.923 12.851 7.564 7.564 0 00.724 3.943c1.628 3.397 5.598 5.093 9.179 3.92a7.584 7.584 0 002.779-12.804c-3.273-2.993-5.917-6.607-7.563-10.725l-3.199-8.007a3.793 3.793 0 00-4.929-2.114z" fill="#128E5A"/><path d="M499.977 388.042a4.382 4.382 0 00-2.3-5.756l-9.16-3.93c-4.664-2-8.812-5.045-12.075-8.932a8.74 8.74 0 00-3.813-2.63c-4.108-1.447-8.739.413-10.707 4.297a8.766 8.766 0 008.194 12.736c5.121-.228 10.236.565 14.947 2.586l9.159 3.929a4.383 4.383 0 005.755-2.3z" fill="#1DB776"/><path d="M470.117 383.828c5.121-.229 10.236.564 14.947 2.585l9.16 3.929a4.382 4.382 0 103.455-8.056l-9.159-3.929c-4.711-2.021-9.826-2.813-14.947-2.585a8.728 8.728 0 01-3.837-.703 8.759 8.759 0 01-5.247-7.013 8.629 8.629 0 00-2.565 3.036 8.766 8.766 0 008.193 12.736zM557.937 377.312c-3.117 7.267.247 15.685 7.514 18.802 7.267 3.117 15.685-.247 18.802-7.514 3.117-7.267-.247-15.685-7.514-18.802-7.267-3.117-15.685.247-18.802 7.514z" fill="#128E5A"/><path d="M584.255 388.603a14.282 14.282 0 001.097-4.299c-3.973 4.566-10.582 6.271-16.444 3.756-5.861-2.514-9.181-8.478-8.611-14.504a14.318 14.318 0 00-2.358 3.758c-3.117 7.267.247 15.685 7.514 18.802 7.267 3.118 15.685-.247 18.802-7.513z" fill="#1DB776"/><path d="M485.442 381.808c-10.179 23.728.805 51.215 24.534 61.394 23.728 10.178 51.215-.806 61.393-24.534 10.179-23.729-.805-51.216-24.534-61.394-23.728-10.179-51.215.806-61.393 24.534z" fill="#1DB776"/><path d="M571.378 418.668a47.207 47.207 0 001.539-4.109c-11.4 20.968-37.107 30.183-59.477 20.588-22.369-9.596-33.409-34.574-26.072-57.285a47.507 47.507 0 00-1.918 3.947c-10.178 23.728.806 51.215 24.534 61.394 23.729 10.178 51.216-.806 61.394-24.535z" fill="#128E5A"/><path d="M527.45 418.905c-2.068 4.82.164 10.404 4.983 12.471 4.82 2.068 10.404-.164 12.471-4.983 2.068-4.82-.164-10.404-4.983-12.471-4.82-2.068-10.404.164-12.471 4.983z" fill="#128E5A"/><path d="M544.914 426.393a9.462 9.462 0 00.742-4.451 9.492 9.492 0 01-9.757 1.379 9.492 9.492 0 01-5.725-8.02 9.447 9.447 0 00-2.714 3.605 9.497 9.497 0 0017.454 7.487zM512.304 375.145a6.429 6.429 0 1011.816 5.07 6.429 6.429 0 00-11.816-5.07z" fill="#fff"/><path d="M475.947 412.341a8.767 8.767 0 004.6 11.513 8.767 8.767 0 0011.513-4.6 8.767 8.767 0 00-4.6-11.513 8.767 8.767 0 00-11.513 4.6z" fill="#1DB776"/><path d="M492.065 419.253a8.725 8.725 0 00.647-4.492 8.76 8.76 0 01-8.704 1.036 8.762 8.762 0 01-5.249-7.021 8.768 8.768 0 1013.306 10.477zM540.602 371.809a4.384 4.384 0 01-2.3-5.756l3.93-9.161c2-4.663 2.908-9.729 2.593-14.793a8.749 8.749 0 01.951-4.535c1.979-3.879 6.616-5.723 10.719-4.264a8.765 8.765 0 015.136 11.721 8.724 8.724 0 01-2.295 3.154c-3.869 3.364-7.028 7.463-9.049 12.174l-3.929 9.16a4.384 4.384 0 01-5.756 2.3z" fill="#128E5A"/><path d="M556.838 412.434a4.381 4.381 0 002.3 5.755l9.16 3.93c4.664 2 8.812 5.046 12.075 8.932a8.74 8.74 0 003.814 2.631c4.107 1.446 8.738-.413 10.706-4.298a8.766 8.766 0 00-8.194-12.736c-5.121.229-10.236-.564-14.947-2.585l-9.159-3.929a4.381 4.381 0 00-5.755 2.3z" fill="#1DB776"/><path d="M584.186 433.68c4.107 1.446 8.738-.413 10.706-4.298a8.735 8.735 0 00.89-5.02c-2.279 1.693-5.332 2.251-8.141 1.262a8.751 8.751 0 01-3.814-2.631c-3.262-3.886-7.411-6.931-12.074-8.932l-9.161-3.929a4.383 4.383 0 10-3.455 8.056l9.16 3.929c4.664 2 8.812 5.046 12.075 8.932a8.74 8.74 0 003.814 2.631zM511.294 462.37a8.723 8.723 0 00.702-3.836c-.01-.225-.015-.451-.021-.677a8.76 8.76 0 01-9.255.815c-2.673-1.354-4.385-3.969-4.723-6.806-.132.115-.263.231-.397.344a8.737 8.737 0 00-2.63 3.812c-1.445 4.106.413 8.735 4.296 10.702a8.762 8.762 0 0012.028-4.354z" fill="#128E5A"/><defs><linearGradient id="paint0_linear" x1="75.53" y1="570.276" x2="128.526" y2="702.296" gradientUnits="userSpaceOnUse"><stop stop-color="#DBF7EB"/><stop offset="1" stop-color="#F5FCF9"/></linearGradient><linearGradient id="paint1_linear" x1="770.16" y1="132.193" x2="321.478" y2="75.535" gradientUnits="userSpaceOnUse"><stop stop-color="#fff"/><stop offset="1" stop-color="#DCF5EB"/></linearGradient><linearGradient id="paint2_linear" x1="677.65" y1="146.465" x2="520.713" y2="97.516" gradientUnits="userSpaceOnUse"><stop stop-color="#D7F4E9"/><stop offset="1" stop-color="#F7F9F8"/></linearGradient><linearGradient id="paint3_linear" x1="686.77" y1="573.552" x2="46.529" y2="284.882" gradientUnits="userSpaceOnUse"><stop stop-color="#DCF5EB"/><stop offset="1" stop-color="#F7FFFB"/></linearGradient><linearGradient id="paint4_linear" x1="31.748" y1="502.39" x2="56.206" y2="645.003" gradientUnits="userSpaceOnUse"><stop stop-color="#FFD8D8"/><stop offset="1" stop-color="#FFF8F8"/></linearGradient><linearGradient id="paint5_linear" x1="728.522" y1="275.733" x2="340.13" y2="-34.3" gradientUnits="userSpaceOnUse"><stop stop-color="#FFF8F8"/><stop offset="1" stop-color="#FFCFCF"/></linearGradient><linearGradient id="paint6_linear" x1="721.132" y1="209.758" x2="575.549" y2="127.515" gradientUnits="userSpaceOnUse"><stop stop-color="#FFD7D7"/><stop offset="1" stop-color="#FFF9F9"/></linearGradient><linearGradient id="paint7_linear" x1="638.845" y1="636.395" x2="63.956" y2="212.397" gradientUnits="userSpaceOnUse"><stop stop-color="#FFCFCF"/><stop offset="1" stop-color="#FFF8F8"/></linearGradient></defs></svg>